# xmcd CD database file
#
# Track frame offsets:
#	150
#	23319
#	45990
#	72822
#	94265
#	119487
#	140875
#	170372
#	189192
#	203825
#	229847
#	248702
#
# Disc length: 3604 seconds
#
# Revision: 0
# Processed by: cddbd v1.4PL0 Copyright (c) Steve Scherf et al.
# Submitted via: CDex 1.50
#
DISCID=9a0e120c
DTITLE=Ethel Ennis - If Women Ruled the World
DYEAR=1998
DGENRE=Jazz
TTITLE0=Spider Webs
TTITLE1=If Women Ruled the World
TTITLE2=God Bless the Child
TTITLE3=You Gotta Be
TTITLE4=For Free
TTITLE5=Sometimes I Don't Wanna Go Home
TTITLE6=Tell It Like it is
TTITLE7=So Far Away
TTITLE8=When I Need You
TTITLE9=Willow Weep For Me
TTITLE10=Nick of Time
TTITLE11=Hey You
EXTD=YEAR: 1998
EXTT0=
EXTT1=
EXTT2=
EXTT3=
EXTT4=
EXTT5=
EXTT6=
EXTT7=
EXTT8=
EXTT9=
EXTT10=
EXTT11=
PLAYORDER=
